<?xml version="1.0" encoding="UTF-8"?>
<svg id="Layer_1" xmlns="http://www.w3.org/2000/svg" version="1.1" viewBox="0 0 1474.7 814">
  <defs>
    <style>
      .st0 {
        fill: #50b848;
      }

      .st1 {
        fill: #1A1A1A;
      }
    </style>
  </defs>
  <path class="st1" d="M76.58,257.79l84.45,211.63,85.62-211.63h50.43l-137.04,328.29L26.15,257.79h50.42Z"/>
  <path class="st1" d="M381.14,257.79v305.34h-46.07v-305.34h46.07Z"/>
  <path class="st1" d="M627.15,303.1l-37.36,22.15c-7-12.14-13.66-20.05-19.97-23.74-6.6-4.22-15.11-6.32-25.52-6.32-12.78,0-23.4,3.62-31.84,10.87-8.43,7.14-12.65,16.1-12.65,26.93,0,14.89,11.07,26.9,33.23,36.01l30.45,12.46c24.79,10.04,42.91,22.28,54.37,36.73,11.48,14.46,17.21,32.15,17.21,53.13,0,28.1-9.36,51.34-28.08,69.67-18.87,18.46-42.26,27.7-70.22,27.7-26.5,0-48.39-7.89-65.67-23.65-17-15.75-27.62-37.86-31.83-66.33l46.67-10.28c2.11,17.93,5.79,30.31,11.06,37.16,9.51,13.19,23.34,19.8,41.55,19.8,14.36,0,26.3-4.82,35.79-14.43,9.5-9.61,14.23-21.79,14.23-36.55,0-5.95-.82-11.38-2.46-16.31-1.65-4.93-4.23-9.48-7.73-13.63-3.48-4.14-8-8.04-13.53-11.68-5.55-3.61-12.13-7.06-19.78-10.37l-29.47-12.25c-41.79-17.64-62.68-43.49-62.68-77.46,0-22.92,8.76-42.09,26.29-57.52,17.54-15.53,39.36-23.33,65.46-23.33,35.2,0,62.69,17.1,82.46,51.24Z"/>
  <path class="st1" d="M736.72,257.79v305.34h-46.08v-305.34h46.08Z"/>
  <path class="st1" d="M794.86,409.1c0-43.01,15.75-79.91,47.27-110.77,31.38-30.84,69.08-46.25,113.12-46.25s80.81,15.55,111.93,46.67c31.25,31.09,46.88,68.48,46.88,112.12s-15.71,81.14-47.07,111.72c-31.51,30.73-69.54,46.09-114.11,46.09-39.44,0-74.81-13.65-106.2-40.95-34.54-30.18-51.81-69.73-51.81-118.63ZM841.34,409.59c0,33.72,11.33,61.45,34.01,83.2,22.53,21.73,48.57,32.59,78.1,32.59,32.05,0,59.08-11.06,81.09-33.22,22.02-22.36,33.02-49.64,33.02-81.77s-10.88-59.81-32.61-81.8c-21.63-22.14-48.39-33.21-80.3-33.21s-58.62,11.08-80.48,33.21c-21.89,21.86-32.83,48.86-32.83,81Z"/>
  <g>
    <path class="st0" d="M1018.63,238.87c46.85,17.75,80.67,49.74,101.46,95.94,2.81,6.18,5.23,12.37,7.34,18.56,15.43-166.1-36.39-308.09-36.39-308.09,0,0-132.75,71.88-231.31,206.33,5.82-3.28,11.87-6.31,18.23-9.09,46.35-20.42,93.24-21.65,140.67-3.65Z"/>
    <path class="st0" d="M1050.14,564.69c-6.86,4.03-14.02,7.75-21.62,11.06-46.46,20.23-93.7,21.22-141.65,3.04-42.46-16.09-75-45.23-97.66-87.42-3.92-7.33-7.18-14.75-10.01-22.23-14.81,165.23,36.62,306.03,36.62,306.03,0,0,135.45-73.35,234.32-210.48Z"/>
  </g>
  <path class="st1" d="M1171.99,563.14V237.04l222.69,232.95v-212.19h46.1v323.93l-222.7-232.36v213.77h-46.09Z"/>
  <g>
    <path class="st1" d="M202.22,617.84c-3.59-3.71-8.55-5.98-13.76-5.98-10.04,0-18.18,8.73-18.18,18.66s8.2,18.65,18.3,18.65c5.08,0,10.04-2.39,13.63-5.97v6.22c-3.89,2.8-8.67,4.42-13.46,4.42-12.74,0-23.5-10.35-23.5-23.15s10.58-23.5,23.5-23.5c5.02,0,9.45,1.43,13.46,4.42v6.22Z"/>
    <path class="st1" d="M261.4,630.58c0,12.98-10.65,23.26-23.51,23.26s-23.5-10.29-23.5-23.26,10.65-23.38,23.5-23.38,23.51,10.46,23.51,23.38ZM219.42,630.52c0,10.16,8.25,18.65,18.48,18.65s18.48-8.49,18.48-18.65-8.14-18.66-18.48-18.66-18.48,8.43-18.48,18.66Z"/>
    <path class="st1" d="M274.47,606.06l35.16,36.84v-34.92h5.02v47.12l-35.17-36.78v34.74h-5.02v-47Z"/>
    <path class="st1" d="M350.45,616.76c-1.79-3.11-3.94-4.9-7.77-4.9s-7.47,2.87-7.47,6.99c0,3.89,4,5.69,7.05,7.06l2.99,1.32c5.86,2.57,10.82,5.5,10.82,12.67,0,7.9-6.34,13.94-14.17,13.94-7.24,0-12.62-4.67-14.06-11.67l4.91-1.37c.66,4.61,4.18,8.37,9.03,8.37s9.27-3.7,9.27-8.79-4.13-7.05-8.31-8.97l-2.75-1.2c-5.26-2.4-9.81-5.09-9.81-11.55,0-7,5.92-11.48,12.62-11.48,5.02,0,9.27,2.57,11.66,7l-4.01,2.57Z"/>
    <path class="st1" d="M381.36,653.06h-5.03v-40.42h-10.88v-4.67h26.91v4.67h-11v40.42Z"/>
    <path class="st1" d="M408.49,653.06h-5.03v-45.09h6.52c8.55,0,16.51,2.27,16.51,12.43,0,6.94-4.37,11.84-11.3,12.45l14.35,20.21h-6.16l-13.64-19.79h-1.25v19.79ZM408.49,628.84h1.56c5.68,0,11.42-1.08,11.42-8.08,0-7.41-5.44-8.12-11.48-8.12h-1.49v16.2Z"/>
    <path class="st1" d="M446.75,634.82c0,3.35-.12,7.17,1.97,10.04,1.98,2.75,5.8,4.31,9.09,4.31s6.75-1.49,8.85-4c2.39-2.88,2.21-6.83,2.21-10.35v-26.85h5.03v28.22c0,4.9-.36,8.79-3.95,12.5-3.11,3.35-7.59,5.15-12.14,5.15-4.25,0-8.61-1.62-11.66-4.61-3.95-3.77-4.43-7.89-4.43-13.04v-28.22h5.03v26.85Z"/>
    <path class="st1" d="M523.15,617.84c-3.59-3.71-8.55-5.98-13.76-5.98-10.04,0-18.18,8.73-18.18,18.66s8.2,18.65,18.3,18.65c5.08,0,10.04-2.39,13.63-5.97v6.22c-3.89,2.8-8.67,4.42-13.46,4.42-12.74,0-23.5-10.35-23.5-23.15s10.58-23.5,23.5-23.5c5.02,0,9.45,1.43,13.46,4.42v6.22Z"/>
    <path class="st1" d="M549.56,653.06h-5.02v-40.42h-10.88v-4.67h26.91v4.67h-11v40.42Z"/>
    <path class="st1" d="M576.81,653.06h-5.02v-45.09h5.02v45.09Z"/>
    <path class="st1" d="M636.67,630.58c0,12.98-10.64,23.26-23.5,23.26s-23.5-10.29-23.5-23.26,10.64-23.38,23.5-23.38,23.5,10.46,23.5,23.38ZM594.69,630.52c0,10.16,8.25,18.65,18.48,18.65s18.48-8.49,18.48-18.65-8.14-18.66-18.48-18.66-18.48,8.43-18.48,18.66Z"/>
    <path class="st1" d="M649.74,606.06l35.16,36.84v-34.92h5.03v47.12l-35.17-36.78v34.74h-5.02v-47Z"/>
    <path class="st1" d="M725.72,616.76c-1.79-3.11-3.94-4.9-7.77-4.9s-7.48,2.87-7.48,6.99c0,3.89,4.01,5.69,7.06,7.06l2.99,1.32c5.86,2.57,10.82,5.5,10.82,12.67,0,7.9-6.34,13.94-14.17,13.94-7.24,0-12.62-4.67-14.05-11.67l4.9-1.37c.66,4.61,4.18,8.37,9.03,8.37s9.27-3.7,9.27-8.79-4.12-7.05-8.31-8.97l-2.75-1.2c-5.26-2.4-9.81-5.09-9.81-11.55,0-7,5.92-11.48,12.62-11.48,5.02,0,9.27,2.57,11.66,7l-4.01,2.57Z"/>
  </g>
  <g>
    <path class="st1" d="M1094.33,649.42c-3.7,2.8-9.03,4.42-13.57,4.42-12.87,0-23.51-10.29-23.51-23.26s10.64-23.38,23.51-23.38,23.5,10.58,23.5,23.5c0,6.28-2.27,11.37-6.52,15.91l6.77,6.88h-6.41l-3.77-4.06ZM1094.27,643.01c3.36-3.53,4.97-7.65,4.97-12.49,0-10.28-8.12-18.66-18.47-18.66s-18.48,8.43-18.48,18.66,8.25,18.65,18.48,18.65c3.34,0,7.29-1.26,10.04-3.34l-10.88-10.94h6.58l7.77,8.12Z"/>
    <path class="st1" d="M1122.05,648.39h12.45v4.67h-17.47v-45.09h5.02v40.42Z"/>
    <path class="st1" d="M1145.42,607.97h8.49c6.75,0,12.26.89,17.58,5.44,5.15,4.42,7.47,10.46,7.47,17.16s-2.38,12.37-7.35,16.8c-5.38,4.78-10.76,5.68-17.83,5.68h-8.37v-45.09ZM1154.09,648.39c5.5,0,10.11-.78,14.24-4.67,3.71-3.47,5.62-8.18,5.62-13.21s-1.97-10.11-5.86-13.52c-4.12-3.64-8.67-4.36-14-4.36h-3.64v35.75h3.64Z"/>
    <path class="st1" d="M1221.35,653.06h-5.03v-45.09h7.42c3.89,0,7.89.12,11.19,2.4,3.35,2.32,5.07,6.27,5.07,10.28,0,3.64-1.49,7.35-4.3,9.68-3.06,2.52-6.94,3-10.72,3h-3.64v19.73ZM1221.35,628.67h3.34c5.57,0,10.29-1.68,10.29-8.14,0-7.36-5.92-7.89-11.78-7.89h-1.85v16.03Z"/>
    <path class="st1" d="M1264.32,653.06h-5.03v-40.42h-10.89v-4.67h26.92v4.67h-11v40.42Z"/>
    <path class="st1" d="M1282.38,607.97h5.8l11.48,20.09,11.48-20.09h5.79l-14.77,25.71v19.37h-5.02v-19.37l-14.77-25.71Z"/>
    <path class="st1" d="M1357.27,648.39h12.45v4.67h-17.47v-45.09h5.03v40.42Z"/>
    <path class="st1" d="M1387.82,653.06h-5.03v-40.42h-10.89v-4.67h26.91v4.67h-11v40.42Z"/>
    <path class="st1" d="M1409.93,607.97h8.5c6.75,0,12.26.89,17.58,5.44,5.15,4.42,7.47,10.46,7.47,17.16s-2.38,12.37-7.35,16.8c-5.38,4.78-10.76,5.68-17.83,5.68h-8.37v-45.09ZM1418.6,648.39c5.51,0,10.11-.78,14.23-4.67,3.72-3.47,5.63-8.18,5.63-13.21s-1.97-10.11-5.86-13.52c-4.12-3.64-8.67-4.36-14-4.36h-3.64v35.75h3.64Z"/>
  </g>
</svg>